<svg width="230" height="204" viewBox="0 0 230 204" fill="none" xmlns="http://www.w3.org/2000/svg">
<mask id="path-1-inside-1" fill="white">
<path fill-rule="evenodd" clip-rule="evenodd" d="M215 102L165 188.603H65L15 102L65 15.3975L165 15.3975L215 102ZM185.503 63.9482C187.507 63.4695 189.197 65.4839 188.378 67.374L173.69 101.26C172.951 102.965 170.675 103.296 169.481 101.872L164.429 95.8518L132.496 123.775C128.767 127.036 123.104 126.67 119.825 122.957L99.6933 100.156L77.6321 119.362C77.8733 120.537 78 121.754 78 123C78 132.941 69.9411 141 60 141C50.0589 141 42 132.941 42 123C42 113.059 50.0589 105 60 105C61.9807 105 63.8867 105.32 65.6691 105.911L94.6152 80.7118C98.3457 77.4643 103.998 77.8356 107.271 81.5432L127.39 104.329L152.856 82.0602L148.247 76.5676C147.053 75.1439 147.774 72.9608 149.582 72.5291L185.503 63.9482Z"/>
</mask>
<path fill-rule="evenodd" clip-rule="evenodd" d="M215 102L165 188.603H65L15 102L65 15.3975L165 15.3975L215 102ZM185.503 63.9482C187.507 63.4695 189.197 65.4839 188.378 67.374L173.69 101.26C172.951 102.965 170.675 103.296 169.481 101.872L164.429 95.8518L132.496 123.775C128.767 127.036 123.104 126.67 119.825 122.957L99.6933 100.156L77.6321 119.362C77.8733 120.537 78 121.754 78 123C78 132.941 69.9411 141 60 141C50.0589 141 42 132.941 42 123C42 113.059 50.0589 105 60 105C61.9807 105 63.8867 105.32 65.6691 105.911L94.6152 80.7118C98.3457 77.4643 103.998 77.8356 107.271 81.5432L127.39 104.329L152.856 82.0602L148.247 76.5676C147.053 75.1439 147.774 72.9608 149.582 72.5291L185.503 63.9482Z" fill="#194B7D"/>
<path d="M215 102L227.99 109.5C230.67 104.859 230.67 99.141 227.99 94.5L215 102ZM165 188.603V203.603C170.359 203.603 175.311 200.744 177.99 196.103L165 188.603ZM65 188.603L52.0096 196.103C54.6891 200.744 59.641 203.603 65 203.603V188.603ZM15 102L2.00962 94.5C-0.669873 99.141 -0.669873 104.859 2.00962 109.5L15 102ZM65 15.3975V0.397461C59.641 0.397461 54.6891 3.25644 52.0096 7.89746L65 15.3975ZM165 15.3975L177.99 7.89746C175.311 3.25644 170.359 0.397461 165 0.397461V15.3975ZM188.378 67.374L174.615 61.4083L174.615 61.4084L188.378 67.374ZM185.503 63.9482L182.018 49.3587L182.018 49.3587L185.503 63.9482ZM173.69 101.26L159.927 95.2942L159.927 95.2942L173.69 101.26ZM169.481 101.872L180.971 92.2307L180.971 92.2307L169.481 101.872ZM164.429 95.8518L175.92 86.21C173.328 83.1219 169.603 81.2068 165.584 80.8964C161.565 80.586 157.59 81.9064 154.555 84.56L164.429 95.8518ZM132.496 123.775L122.622 112.483L122.622 112.483L132.496 123.775ZM119.825 122.957L131.069 113.029L119.825 122.957ZM99.6933 100.156L110.938 90.2282C105.482 84.0489 96.0617 83.4302 89.8443 88.8427L99.6933 100.156ZM77.6321 119.362L67.7831 108.048C63.7017 111.601 61.8504 117.077 62.9385 122.378L77.6321 119.362ZM65.6691 105.911L60.9483 120.149C65.9804 121.817 71.5195 120.705 75.5181 117.224L65.6691 105.911ZM94.6152 80.7118L104.464 92.0254L104.464 92.0254L94.6152 80.7118ZM107.271 81.5432L96.0269 91.4712L96.0269 91.4712L107.271 81.5432ZM127.39 104.329L116.145 114.257C121.61 120.446 131.049 121.055 137.264 115.621L127.39 104.329ZM152.856 82.0602L162.73 93.352C168.877 87.9772 169.595 78.6732 164.347 72.4184L152.856 82.0602ZM148.247 76.5676L159.738 66.9258L159.738 66.9258L148.247 76.5676ZM149.582 72.5291L153.067 87.1186L153.067 87.1186L149.582 72.5291ZM202.01 94.5L152.01 181.103L177.99 196.103L227.99 109.5L202.01 94.5ZM165 173.603H65V203.603H165V173.603ZM77.9904 181.103L27.9904 94.5L2.00962 109.5L52.0096 196.103L77.9904 181.103ZM27.9904 109.5L77.9904 22.8975L52.0096 7.89746L2.00962 94.5L27.9904 109.5ZM65 30.3975L165 30.3975V0.397461L65 0.397461V30.3975ZM152.01 22.8975L202.01 109.5L227.99 94.5L177.99 7.89746L152.01 22.8975ZM202.141 73.3397C207.876 60.1083 196.044 46.0082 182.018 49.3587L188.988 78.5377C178.97 80.9309 170.518 70.8594 174.615 61.4083L202.141 73.3397ZM187.452 107.225L202.141 73.3396L174.615 61.4084L159.927 95.2942L187.452 107.225ZM157.99 111.514C166.352 121.48 182.279 119.162 187.452 107.225L159.927 95.2942C163.623 86.7684 174.999 85.1124 180.971 92.2307L157.99 111.514ZM152.938 105.494L157.99 111.514L180.971 92.2307L175.92 86.21L152.938 105.494ZM142.37 135.067L174.303 107.144L154.555 84.56L122.622 112.483L142.37 135.067ZM108.581 132.885C117.324 142.787 132.426 143.762 142.37 135.067L122.622 112.483C125.108 110.309 128.883 110.553 131.069 113.029L108.581 132.885ZM88.449 110.084L108.581 132.885L131.069 113.029L110.938 90.2282L88.449 110.084ZM87.4811 130.675L109.542 111.47L89.8443 88.8427L67.7831 108.048L87.4811 130.675ZM93 123C93 120.735 92.7695 118.507 92.3257 116.345L62.9385 122.378C62.9771 122.566 63 122.773 63 123H93ZM60 156C78.2254 156 93 141.225 93 123H63C63 124.657 61.6569 126 60 126V156ZM27 123C27 141.225 41.7746 156 60 156V126C58.3431 126 57 124.657 57 123H27ZM60 90C41.7746 90 27 104.775 27 123H57C57 121.343 58.3431 120 60 120V90ZM70.3898 91.6731C67.1039 90.5836 63.605 90 60 90V120C60.3564 120 60.6694 120.056 60.9483 120.149L70.3898 91.6731ZM84.7662 69.3983L55.82 94.5973L75.5181 117.224L104.464 92.0254L84.7662 69.3983ZM118.515 71.6151C109.786 61.7282 94.714 60.7382 84.7662 69.3983L104.464 92.0254C101.977 94.1904 98.2093 93.9429 96.0269 91.4712L118.515 71.6151ZM138.634 94.4009L118.515 71.6151L96.0269 91.4712L116.145 114.257L138.634 94.4009ZM142.982 70.7683L117.516 93.0371L137.264 115.621L162.73 93.352L142.982 70.7683ZM136.757 86.2094L141.366 91.702L164.347 72.4184L159.738 66.9258L136.757 86.2094ZM146.097 57.9395C133.443 60.9621 128.395 76.2438 136.757 86.2094L159.738 66.9258C165.711 74.0441 162.105 84.9596 153.067 87.1186L146.097 57.9395ZM182.018 49.3587L146.097 57.9395L153.067 87.1186L188.988 78.5377L182.018 49.3587Z" fill="#194B7D" mask="url(#path-1-inside-1)"/>
<path fill-rule="evenodd" clip-rule="evenodd" d="M215 102L165 188.603L65 188.603L15 102L65 15.3975L165 15.3975L215 102Z" stroke="#194B7D" stroke-width="8" stroke-linejoin="round"/>
<path d="M221.495 105.75C222.835 103.429 222.835 100.571 221.495 98.25L171.495 11.6475C170.155 9.32695 167.679 7.89746 165 7.89746L65 7.89746C62.3205 7.89746 59.8446 9.32695 58.5048 11.6475L8.50481 98.25C7.16507 100.571 7.16507 103.429 8.50481 105.75L58.5048 192.353C59.8446 194.673 62.3205 196.103 65 196.103L165 196.103C167.679 196.103 170.155 194.673 171.495 192.353L221.495 105.75Z" stroke="#194B7D" stroke-width="15" stroke-linejoin="round"/>
</svg>
