<svg width="230" height="204" viewBox="0 0 230 204" fill="none" xmlns="http://www.w3.org/2000/svg">
<mask id="path-1-inside-1" fill="white">
<path fill-rule="evenodd" clip-rule="evenodd" d="M215 102L165 188.603H65L15 102L65 15.3975L165 15.3975L215 102ZM187.563 61.6711C189.567 61.1925 191.257 63.2068 190.438 65.097L172.036 107.55C171.297 109.255 169.021 109.586 167.827 108.163L161.716 100.881L133.812 125.281C129.255 129.266 122.333 128.819 118.326 124.281L99.5086 102.969L79.665 120.244C79.8851 121.462 80 122.718 80 124C80 135.598 70.598 145 59 145C47.402 145 38 135.598 38 124C38 112.402 47.402 103 59 103C61.0761 103 63.0819 103.301 64.976 103.863L93.302 79.2034C97.8615 75.2342 104.769 75.6879 108.77 80.2194L127.572 101.513L147.572 84.024L141.225 76.4601C140.031 75.0364 140.752 72.8533 142.559 72.4215L187.563 61.6711Z"/>
</mask>
<path fill-rule="evenodd" clip-rule="evenodd" d="M215 102L165 188.603H65L15 102L65 15.3975L165 15.3975L215 102ZM187.563 61.6711C189.567 61.1925 191.257 63.2068 190.438 65.097L172.036 107.55C171.297 109.255 169.021 109.586 167.827 108.163L161.716 100.881L133.812 125.281C129.255 129.266 122.333 128.819 118.326 124.281L99.5086 102.969L79.665 120.244C79.8851 121.462 80 122.718 80 124C80 135.598 70.598 145 59 145C47.402 145 38 135.598 38 124C38 112.402 47.402 103 59 103C61.0761 103 63.0819 103.301 64.976 103.863L93.302 79.2034C97.8615 75.2342 104.769 75.6879 108.77 80.2194L127.572 101.513L147.572 84.024L141.225 76.4601C140.031 75.0364 140.752 72.8533 142.559 72.4215L187.563 61.6711Z" fill="white"/>
<path d="M215 102L227.99 109.5C230.67 104.859 230.67 99.141 227.99 94.5L215 102ZM165 188.603V203.603C170.359 203.603 175.311 200.744 177.99 196.103L165 188.603ZM65 188.603L52.0096 196.103C54.6891 200.744 59.641 203.603 65 203.603V188.603ZM15 102L2.00962 94.5C-0.669873 99.141 -0.669873 104.859 2.00962 109.5L15 102ZM65 15.3975V0.397461C59.641 0.397461 54.6891 3.25644 52.0096 7.89746L65 15.3975ZM165 15.3975L177.99 7.89746C175.311 3.25644 170.359 0.397461 165 0.397461V15.3975ZM190.438 65.097L204.2 71.0626L204.2 71.0626L190.438 65.097ZM187.563 61.6711L184.078 47.0816L184.078 47.0816L187.563 61.6711ZM172.036 107.55L158.273 101.584L158.273 101.584L172.036 107.55ZM167.827 108.163L156.336 117.805L156.336 117.805L167.827 108.163ZM161.716 100.881L173.207 91.2387C170.616 88.1506 166.891 86.2355 162.871 85.925C158.852 85.6146 154.877 86.9351 151.842 89.5887L161.716 100.881ZM133.812 125.281L143.686 136.572L143.686 136.572L133.812 125.281ZM118.326 124.281L129.57 114.352L129.57 114.352L118.326 124.281ZM99.5086 102.969L110.753 93.0407C105.297 86.8614 95.8769 86.2427 89.6596 91.6552L99.5086 102.969ZM79.665 120.244L69.816 108.93C65.8307 112.399 63.9648 117.71 64.9037 122.909L79.665 120.244ZM64.976 103.863L60.7145 118.244C65.6333 119.702 70.9557 118.545 74.825 115.176L64.976 103.863ZM93.302 79.2034L83.453 67.8898L83.453 67.8898L93.302 79.2034ZM108.77 80.2194L120.015 70.2914L120.015 70.2913L108.77 80.2194ZM127.572 101.513L116.327 111.441C121.792 117.63 131.23 118.24 137.446 112.805L127.572 101.513ZM147.572 84.024L157.446 95.3159C163.593 89.9411 164.311 80.6371 159.063 74.3822L147.572 84.024ZM141.225 76.4601L152.716 66.8182L152.716 66.8182L141.225 76.4601ZM142.559 72.4215L139.074 57.832L139.074 57.832L142.559 72.4215ZM202.01 94.5L152.01 181.103L177.99 196.103L227.99 109.5L202.01 94.5ZM165 173.603H65V203.603H165V173.603ZM77.9904 181.103L27.9904 94.5L2.00962 109.5L52.0096 196.103L77.9904 181.103ZM27.9904 109.5L77.9904 22.8975L52.0096 7.89746L2.00962 94.5L27.9904 109.5ZM65 30.3975L165 30.3975V0.397461L65 0.397461V30.3975ZM152.01 22.8975L202.01 109.5L227.99 94.5L177.99 7.89746L152.01 22.8975ZM204.2 71.0626C209.936 57.8314 198.104 43.7311 184.078 47.0816L191.048 76.2606C181.029 78.6539 172.578 68.5823 176.675 59.1314L204.2 71.0626ZM185.798 113.516L204.2 71.0626L176.675 59.1314L158.273 101.584L185.798 113.516ZM156.336 117.805C164.698 127.77 180.625 125.452 185.798 113.516L158.273 101.584C161.969 93.0586 173.345 91.4026 179.318 98.5209L156.336 117.805ZM150.226 110.522L156.336 117.805L179.318 98.5209L173.207 91.2387L150.226 110.522ZM143.686 136.572L171.59 112.172L151.842 89.5887L123.938 113.989L143.686 136.572ZM107.081 134.209C116.553 144.936 132.913 145.993 143.686 136.572L123.938 113.989C125.596 112.54 128.113 112.702 129.57 114.352L107.081 134.209ZM88.2643 112.897L107.081 134.209L129.57 114.352L110.753 93.0407L88.2643 112.897ZM89.514 131.557L109.358 114.282L89.6596 91.6552L69.816 108.93L89.514 131.557ZM95 124C95 121.82 94.8044 119.672 94.4262 117.578L64.9037 122.909C64.9657 123.252 65 123.616 65 124H95ZM59 160C78.8823 160 95 143.882 95 124H65C65 127.314 62.3137 130 59 130V160ZM23 124C23 143.882 39.1177 160 59 160V130C55.6863 130 53 127.314 53 124H23ZM59 88C39.1177 88 23 104.118 23 124H53C53 120.686 55.6863 118 59 118V88ZM69.2375 89.4806C65.9746 88.5138 62.5341 88 59 88V118C59.6181 118 60.1892 118.089 60.7145 118.244L69.2375 89.4806ZM83.453 67.8898L55.127 92.5489L74.825 115.176L103.151 90.5169L83.453 67.8898ZM120.015 70.2913C110.558 59.5806 94.2298 58.5081 83.453 67.8898L103.151 90.5169C101.493 91.9603 98.9811 91.7953 97.5262 90.1475L120.015 70.2913ZM138.816 91.5851L120.015 70.2914L97.5262 90.1475L116.327 111.441L138.816 91.5851ZM137.698 72.7322L117.698 90.2213L137.446 112.805L157.446 95.3159L137.698 72.7322ZM129.735 86.1019L136.081 93.6658L159.063 74.3822L152.716 66.8182L129.735 86.1019ZM139.074 57.832C126.421 60.8546 121.372 76.1363 129.735 86.1019L152.716 66.8182C158.689 73.9365 155.083 84.852 146.045 87.011L139.074 57.832ZM184.078 47.0816L139.074 57.832L146.045 87.011L191.048 76.2606L184.078 47.0816Z" fill="white" mask="url(#path-1-inside-1)"/>
<path fill-rule="evenodd" clip-rule="evenodd" d="M215 102L165 188.603L65 188.603L15 102L65 15.3975L165 15.3975L215 102Z" stroke="white" stroke-width="2" stroke-linejoin="round"/>
<path d="M221.495 105.75C222.835 103.429 222.835 100.571 221.495 98.25L171.495 11.6475C170.155 9.32695 167.679 7.89746 165 7.89746L65 7.89746C62.3205 7.89746 59.8446 9.32695 58.5048 11.6475L8.50481 98.25C7.16507 100.571 7.16507 103.429 8.50481 105.75L58.5048 192.353C59.8446 194.673 62.3205 196.103 65 196.103L165 196.103C167.679 196.103 170.155 194.673 171.495 192.353L221.495 105.75Z" stroke="white" stroke-width="15" stroke-linejoin="round"/>
</svg>
